<svg width="410" height="722" viewBox="0 0 410 722" fill="none" xmlns="http://www.w3.org/2000/svg">
<path d="M181 127C157 127 134.333 130 113 136C91.6667 142 68 151.667 42 165L1.41561e-06 52C26 35.3333 56.6667 22.6666 92 13.9999C127.333 4.66662 162 -5.10216e-05 196 -5.10216e-05C238.667 -5.10216e-05 273.667 5.66662 301 17C329 28.3333 351 42.6666 367 60C383 77.3333 394 96.3333 400 117C406.667 137.667 410 157.333 410 176C410 194.667 407 212 401 228C395.667 243.333 388.667 257.667 380 271C371.333 284.333 361.333 297 350 309C338.667 321 327.667 332.333 317 343C309 351 300.667 359.667 292 369C283.333 377.667 275.333 387 268 397C261.333 407 255.667 417.667 251 429C246.333 439.667 244 450.667 244 462C244 464.667 244 468.667 244 474C244 479.333 244.333 484 245 488H113C111.667 481.333 110.667 474 110 466C110 457.333 110 450 110 444C110 425.333 112.333 408.667 117 394C121.667 378.667 127.667 364.667 135 352C143 338.667 152 326.333 162 315C172 303.667 182.333 292.667 193 282C208.333 266.667 222.333 251.667 235 237C247.667 221.667 254 204.333 254 185C254 169 247.667 155.333 235 144C223 132.667 205 127 181 127ZM274 630C274 659.333 264.333 682 245 698C226.333 714 205 722 181 722C157 722 135.333 714 116 698C97.3333 682 88 659.333 88 630C88 600.667 97.3333 578 116 562C135.333 546 157 538 181 538C205 538 226.333 546 245 562C264.333 578 274 600.667 274 630Z" fill="white"/>
</svg>
